<svg id="Layer_1" data-name="Layer 1" xmlns="http://www.w3.org/2000/svg" viewBox="0 0 435 256.87"><defs><style>.cls-1{fill:#fff;}.cls-2{fill:none;stroke:#fff;stroke-miterlimit:10;}.cls-3{fill:#4fb965;}.cls-4{fill:#3e68b2;}.cls-5{fill:#fdcd0b;}.cls-6{fill:#cf2037;}</style></defs><title>DTAI_Logo_White</title><path class="cls-1" d="M153.29,138.4c0-12.25-.26-14.71-6.19-15.35l-2.45-.26c-1.29-.65-1.29-4.39.26-4.52,10.84-.65,20.9-1.16,34.57-1.16,10.58,0,21.16,1,30.06,4.26,16.9,6.06,26.19,21.28,26.19,37.41,0,17.29-8.26,31.22-23.09,38.57-8.77,4.39-19.35,6.06-32.64,6.06-6.06,0-12.51-.77-17.16-.77-6.19,0-12.77.13-20.12.39-1-.77-1-3.87,0-4.52l4-.65c5.8-.9,6.58-1.94,6.58-13.8Zm18.45,40.89c0,7.09.26,11.74,2.58,14.45s6.06,3.74,10.71,3.74c22.32,0,29.93-19.87,29.93-37.41,0-23.22-12.25-37-35.6-37-3.48,0-5.93.65-6.71,1.68s-.9,3.48-.9,7.48Z" transform="translate(-8.83 -7.5)"/><path class="cls-1" d="M273.78,127.17c0-3.1,0-3.74-3.1-3.74h-8c-9.42,0-12.13,5.16-16,14.58-1.55.77-4,.52-4.77-1.16,2.71-8.9,3.35-16.9,4.26-21.93a3.08,3.08,0,0,1,1.81-.65,3,3,0,0,1,1.81.52c.65,2.19,1,2.71,10.84,2.71h48c8.51,0,10.45-.13,11.61-2.84a3.23,3.23,0,0,1,1.68-.39,2.75,2.75,0,0,1,1.94.9c-1.29,4.39-2.19,14.83-1.94,22.19-.64,1.16-4.13,1.42-4.77.39-2.19-8.26-4-14.32-13.67-14.32h-7.74c-3.1,0-3.48.39-3.48,3.74v56.89c0,12,.77,13,6.58,13.8l5.16.65c.9.77.9,3.74,0,4.52-8.38-.26-14.83-.39-20.64-.39-6.19,0-12.9.13-21.93.39-1-.77-1-3.74,0-4.52l5.8-.65c5.81-.65,6.58-1.81,6.58-13.8Z" transform="translate(-8.83 -7.5)"/><path class="cls-1" d="M340.6,173.48c-3.1,0-3.48.13-4.26,2.58l-5,15a15.06,15.06,0,0,0-.9,4.64c0,.77,1.68,1.55,5.29,2.19l3.87.65c.77.9,1,3.87-.26,4.52-4.51-.26-9.16-.26-14.58-.39-4.39,0-7.35.39-13.29.39-1.42-.77-1.29-3.48-.39-4.52l3.48-.39c3.1-.39,5.68-1.42,7.87-6.45s4.64-11.35,8.13-20.64l11.74-31.48c3-8.13,5.16-12.64,4.77-16.38,6.19-1.42,11-7.74,11.22-7.74,1.68,0,2.45.65,3,2.58,1,3.74,2.58,8.51,5.8,17.67l17.54,50.57c2.71,7.74,3.87,10.71,8.64,11.48l4.9.77c.77.65,1,3.74-.13,4.52-6.19-.26-13.16-.39-19.87-.39-6.45,0-11.48.13-17.41.39a2.93,2.93,0,0,1-.26-4.52l4.13-.65c3-.52,3.48-1.42,3.48-2.19s-.9-4-2.45-8.77l-3.48-11.09c-.65-2.06-1.68-2.32-6.19-2.32Zm14.71-6.84c3,0,3.61-.39,2.58-3.74l-3.35-10.45c-1.81-5.55-4.13-12.51-5.29-15.22-1,3-3.61,9.93-5.55,15.87l-3.22,9.67c-1.16,3.48-.52,3.87,2.71,3.87Z" transform="translate(-8.83 -7.5)"/><path class="cls-1" d="M427.8,183.8c0,12.13.77,13,6.71,14.06l3.61.65c1,.77.9,3.74-.13,4.52-7-.26-13.29-.39-19.35-.39S406,202.77,399,203c-1-.77-1-3.74,0-4.52l3.61-.65c5.93-1,6.71-1.94,6.71-14.06V136.33c0-12.13-.77-13-6.71-14.06l-3.61-.65c-1-.77-1-3.74,0-4.51,7,.26,13.42.39,19.61.39s12.51-.13,19.48-.39c1,.77,1,3.74,0,4.51l-3.61.65c-5.93,1-6.71,1.94-6.71,14.06Z" transform="translate(-8.83 -7.5)"/><line class="cls-2" x1="173.13" y1="210" x2="434.67" y2="210"/><path class="cls-1" d="M182.89,235.42c0-.41,0-4.52-.1-5.07a42.85,42.85,0,0,1,5,.19c6.36.8,7.14,3.63,7.14,5,0,6-7.68,8.56-12.13,8.56.08-.9.12-5.73.12-6.26Zm1.75,7c5.32-.47,8.35-3.61,8.35-6.34,0-3-3.3-4.29-8.35-4.23Z" transform="translate(-8.83 -7.5)"/><path class="cls-1" d="M204.65,244.18c-.58,0-5.93-.18-6.28-.18.06-.88.06-4.43.06-4.82V237c0-.27,0-4.27-.06-4.58.43,0,5.05-.25,5.93-.31l.08,1.4c-.76,0-4,.08-4.25.08v4.06c.33,0,2.59-.08,3.67-.18l.06,1.42-3.72-.06v3.94c.43,0,2.81,0,4.47-.06Z" transform="translate(-8.83 -7.5)"/><path class="cls-1" d="M217,244.14a15,15,0,0,1-2.22.14c-6,0-7.53-3.31-7.53-4.91,0-2.81,2.65-6.18,8.72-7.25l.27,1.48c-3.86.47-7.18,2.61-7.18,5.5,0,2,1.66,3.78,5.89,3.78a9,9,0,0,0,1.87-.2Z" transform="translate(-8.83 -7.5)"/><path class="cls-1" d="M222,232.4c-.08.37-.16,3.63-.16,5.71v4.58c.43,0,2.54,0,4.43-.08v1.56c-.57,0-5.83-.18-6.28-.18.16-.88.16-4.43.16-4.82V237c0-.27,0-4.27-.08-4.58Z" transform="translate(-8.83 -7.5)"/><path class="cls-1" d="M227.47,243.49c.94-1.66,6-11,6.4-11.68h0c1.5,2.36,5.71,9.83,6.86,11.56l-1.58,1c-.31-.62-2.15-3.9-2.32-4.19l-6,.23c-.23.53-1.6,3.41-1.87,4Zm8.79-4.54c-.19-.37-2.24-4.11-2.42-4.39-.25.39-2.18,4.31-2.34,4.58Z" transform="translate(-8.83 -7.5)"/><path class="cls-1" d="M245.31,238.93c0,.62.06,4.82.1,5.07h-1.83c.06-.39,0-5.66,0-6v-1.35c0-.51,0-3.94-.1-4.25a32.06,32.06,0,0,1,3.86.14c2.34.27,3.71,1.23,3.71,2.67s-1.05,2.54-2.52,3.39c.45.6,3.59,4,4.1,4.52l-1.35,1.19c-.19-.23-4.21-5.15-4.74-5.85.88-.45,2.65-1.35,2.65-3,0-.78-.6-1.77-3.92-1.79Z" transform="translate(-8.83 -7.5)"/><path class="cls-1" d="M253.32,243.49c.94-1.66,6-11,6.4-11.68h0c1.5,2.36,5.71,9.83,6.86,11.56l-1.58,1c-.31-.62-2.15-3.9-2.32-4.19l-6,.23c-.23.53-1.6,3.41-1.87,4Zm8.79-4.54c-.19-.37-2.24-4.11-2.42-4.39-.25.39-2.18,4.31-2.34,4.58Z" transform="translate(-8.83 -7.5)"/><path class="cls-1" d="M270.39,244c.1-.43.12-5.27.12-7.9v-2.32c-2,0-4.52.08-4.78.16v-1.58c.51.14,4.7.2,4.9.2h1.56c.33,0,4.19-.06,4.76-.2v1.58c0-.08-3.31-.16-4.74-.16v2.57c0,3.37.18,7.31.21,7.64Z" transform="translate(-8.83 -7.5)"/><path class="cls-1" d="M281.11,239c0,1.66.06,4.62.08,5h-1.83c0-.72.06-4.6.06-5v-1.79c0-.29-.06-4.39-.1-4.78h1.89c0,.29-.1,2.81-.1,4.8Z" transform="translate(-8.83 -7.5)"/><path class="cls-1" d="M296.5,232.92c-.57.86-5.95,10.47-6.57,11.62h0c-.33-.55-5.54-10.86-6-11.62l1.62-.82c.27.76,4.21,8.83,4.56,9.36.29-.41,4.66-8.81,4.88-9.36Z" transform="translate(-8.83 -7.5)"/><path class="cls-1" d="M305.27,244.18c-.58,0-5.93-.18-6.28-.18.06-.88.06-4.43.06-4.82V237c0-.27,0-4.27-.06-4.58.43,0,5.05-.25,5.93-.31l.08,1.4c-.76,0-4,.08-4.25.08v4.06c.33,0,2.59-.08,3.67-.18l.06,1.42-3.72-.06v3.94c.43,0,2.81,0,4.47-.06Z" transform="translate(-8.83 -7.5)"/><path class="cls-1" d="M317.46,230.35c-.08.43-.16,4.27-.16,6.73v5.52c.47,0,2.77,0,4.64-.08v1.68c-.27,0-6.06-.19-6.55-.19.16-1,.16-5.21.16-5.67v-2.59c0-.31,0-5-.08-5.38Z" transform="translate(-8.83 -7.5)"/><path class="cls-1" d="M323.29,243.49c.94-1.66,6-11,6.4-11.68h0c1.5,2.36,5.71,9.83,6.86,11.56l-1.58,1c-.31-.62-2.15-3.9-2.32-4.19l-6,.23c-.23.53-1.6,3.41-1.87,4Zm8.79-4.54c-.19-.37-2.24-4.11-2.42-4.39-.25.39-2.18,4.31-2.34,4.58Z" transform="translate(-8.83 -7.5)"/><path class="cls-1" d="M338.83,244c.1-1.25.58-10.55.66-12.27h.1c.51.55,8.64,8.74,9.18,9.26,0-.47,0-8.13.06-8.68l1.74.08c-.08,1-.41,7.78-.49,12H350c-.51-.45-9-9-9.3-9.2,0,.31-.1,8.42-.08,9Z" transform="translate(-8.83 -7.5)"/><path class="cls-1" d="M363.73,243.75a13.57,13.57,0,0,1-3.92.53c-4,0-6.4-2.11-6.4-4.86,0-2,2.07-5.64,8.58-7.33l.35,1.52c-3.84.72-7.12,3.2-7.12,5.83,0,1.74,1.44,3.57,5,3.57a6.06,6.06,0,0,0,1.83-.23v-2.69a10.54,10.54,0,0,0-.06-1.15h1.74v2.48C363.69,242,363.73,243.53,363.73,243.75Z" transform="translate(-8.83 -7.5)"/><path class="cls-1" d="M368.68,236.32c0,2.69.16,3.92.82,5a3.21,3.21,0,0,0,2.94,1.6,3.34,3.34,0,0,0,3-1.58c.82-1.21.84-3.2.84-5.81V235c0-1.15-.08-2.13-.1-2.75h1.78c0,.37,0,1.46,0,2.77v.78c0,3.18-.23,5.19-1.56,6.73a5.06,5.06,0,0,1-4.19,1.77,4.6,4.6,0,0,1-4.06-2c-.82-1.23-1.17-2.54-1.17-6.55v-.9c0-.76,0-2,0-2.36h1.75c0,.43-.08,1.21-.08,2.73Z" transform="translate(-8.83 -7.5)"/><path class="cls-1" d="M379.53,243.49c.94-1.66,6-11,6.4-11.68h0c1.5,2.36,5.71,9.83,6.86,11.56l-1.58,1c-.31-.62-2.15-3.9-2.32-4.19l-6,.23c-.23.53-1.6,3.41-1.87,4Zm8.79-4.54c-.19-.37-2.24-4.11-2.42-4.39-.25.39-2.18,4.31-2.34,4.58Z" transform="translate(-8.83 -7.5)"/><path class="cls-1" d="M404.49,243.75a13.57,13.57,0,0,1-3.92.53c-4,0-6.4-2.11-6.4-4.86,0-2,2.07-5.64,8.58-7.33l.35,1.52c-3.84.72-7.12,3.2-7.12,5.83,0,1.74,1.44,3.57,5,3.57a6,6,0,0,0,1.83-.23v-2.69a10.63,10.63,0,0,0-.06-1.15h1.74v2.48C404.45,242,404.49,243.53,404.49,243.75Z" transform="translate(-8.83 -7.5)"/><path class="cls-1" d="M414.72,244.18c-.58,0-5.93-.18-6.28-.18.06-.88.06-4.43.06-4.82V237c0-.27,0-4.27-.06-4.58.43,0,5.05-.25,5.93-.31l.08,1.4c-.76,0-4,.08-4.25.08v4.06c.33,0,2.59-.08,3.67-.18l.06,1.42-3.72-.06v3.94c.43,0,2.81,0,4.47-.06Z" transform="translate(-8.83 -7.5)"/><path class="cls-1" d="M418.27,242.95c1.79-.35,4.08-1.07,4.08-2.4,0-.86-.6-1.27-1.89-1.89-1.52-.74-2.63-1.44-2.63-2.65,0-1.85,2.71-3.47,5.23-3.92l.37,1.37c-1.15.18-3.8.84-3.8,2.28,0,.9,1.27,1.35,2,1.77,1.35.74,2.52,1.27,2.52,2.65,0,1.72-2,3.45-5.44,4.15Z" transform="translate(-8.83 -7.5)"/><path class="cls-1" d="M442.79,244c-.55-.43-1.38-1.05-2.3-1.81a7,7,0,0,1-5,2.13c-2,0-3.71-1.29-3.71-3.18s1.64-3.41,2.61-4.25a3.34,3.34,0,0,1-1.17-2.28c0-2.09,2.65-4,5.3-4.56l.43,1.48c-1.21.19-4,1.11-4,2.75,0,1.15,1.13,2.13,2.34,3.24.68.62,1.89,1.64,3.24,2.67.82-1,1.31-1.81,1.62-2.26l1.25.92a20.73,20.73,0,0,1-1.81,2.18c1,.76,1.79,1.35,2.2,1.7Zm-6.94-1.15a5,5,0,0,0,3.63-1.56,52.07,52.07,0,0,1-4.11-3.47,4,4,0,0,0-1.81,3A2.07,2.07,0,0,0,435.84,242.85Z" transform="translate(-8.83 -7.5)"/><path class="cls-1" d="M180.36,263.36c1.07-1.87,6.69-12.95,7.16-13.69h0c1.72,2.77,6.34,11.56,7.66,13.59l-1.66,1.09c-.39-.74-2.46-4.74-2.67-5.05l-6.77.27c-.23.37-1.83,4.13-2.16,4.8Zm9.95-5.3c-.21-.43-2.61-5-2.81-5.28-.29.43-2.54,5.21-2.71,5.52Z" transform="translate(-8.83 -7.5)"/><path class="cls-1" d="M199.84,258.93c0,.62.06,4.82.1,5.07H198.1c.06-.39,0-5.66,0-6v-1.35c0-.51,0-3.94-.1-4.25a32.06,32.06,0,0,1,3.86.14c2.34.27,3.71,1.23,3.71,2.67s-1.05,2.54-2.52,3.39c.45.6,3.59,4,4.1,4.52l-1.35,1.19c-.19-.23-4.21-5.15-4.74-5.85.88-.45,2.65-1.35,2.65-3,0-.78-.6-1.77-3.92-1.79Z" transform="translate(-8.83 -7.5)"/><path class="cls-1" d="M212.14,264c.1-.43.12-5.27.12-7.9v-2.32c-2,0-4.52.08-4.78.16v-1.58c.51.14,4.7.2,4.9.2h1.56c.33,0,4.19-.06,4.76-.2v1.58c0-.08-3.31-.16-4.74-.16v2.57c0,3.37.18,7.31.21,7.64Z" transform="translate(-8.83 -7.5)"/><path class="cls-1" d="M222.86,259c0,1.66.06,4.62.08,5h-1.83c0-.72.06-4.6.06-5v-1.79c0-.29-.06-4.39-.1-4.78H223c0,.29-.1,2.81-.1,4.8Z" transform="translate(-8.83 -7.5)"/><path class="cls-1" d="M227.88,264c.16-.88.16-4.43.16-4.82V257c0-.27,0-4.27-.08-4.58.45,0,4.89-.18,5.91-.25l.08,1.4-4.21.08v4.06c.33,0,2.85-.1,3.88-.16l.06,1.38-3.94-.06v1.52c0,.25,0,3.39.06,3.63Z" transform="translate(-8.83 -7.5)"/><path class="cls-1" d="M239.38,259c0,1.66.06,4.62.08,5h-1.83c0-.72.06-4.6.06-5v-1.79c0-.29-.06-4.39-.1-4.78h1.89c0,.29-.1,2.81-.1,4.8Z" transform="translate(-8.83 -7.5)"/><path class="cls-1" d="M252.64,264.14a15,15,0,0,1-2.22.14c-6,0-7.53-3.31-7.53-4.91,0-2.81,2.65-6.18,8.72-7.25l.27,1.48c-3.86.47-7.18,2.61-7.18,5.5,0,2,1.66,3.78,5.89,3.78a9,9,0,0,0,1.87-.2Z" transform="translate(-8.83 -7.5)"/><path class="cls-1" d="M257.52,259c0,1.66.06,4.62.08,5h-1.83c0-.72.06-4.6.06-5v-1.79c0-.29-.06-4.39-.1-4.78h1.89c0,.29-.1,2.81-.1,4.8Z" transform="translate(-8.83 -7.5)"/><path class="cls-1" d="M260.38,263.49c.94-1.66,6-11,6.4-11.68h0c1.5,2.36,5.71,9.83,6.86,11.56l-1.58,1c-.31-.62-2.15-3.9-2.32-4.19l-6,.23c-.23.53-1.6,3.41-1.87,4Zm8.79-4.54c-.19-.37-2.24-4.11-2.42-4.39-.25.39-2.18,4.31-2.34,4.58Z" transform="translate(-8.83 -7.5)"/><path class="cls-1" d="M278.38,252.4c-.08.37-.16,3.63-.16,5.71v4.58c.43,0,2.54,0,4.43-.08v1.56c-.57,0-5.83-.18-6.28-.18.16-.88.16-4.43.16-4.82V257c0-.27,0-4.27-.08-4.58Z" transform="translate(-8.83 -7.5)"/><path class="cls-1" d="M294.08,258.11c0,2,.06,5.44.08,5.89h-1.89c0-.86.06-5.42.06-5.93V256c0-.33-.06-5.15-.1-5.62h2c0,.35-.1,3.31-.1,5.66Z" transform="translate(-8.83 -7.5)"/><path class="cls-1" d="M299,264c.1-1.25.58-10.55.66-12.27h.1c.51.55,8.64,8.74,9.18,9.26,0-.47,0-8.13.06-8.68l1.74.08c-.08,1-.41,7.78-.49,12h-.08c-.51-.45-9-9-9.3-9.2,0,.31-.1,8.42-.08,9Z" transform="translate(-8.83 -7.5)"/><path class="cls-1" d="M317.22,264c.1-.43.12-5.27.12-7.9v-2.32c-2,0-4.52.08-4.78.16v-1.58c.51.14,4.7.2,4.89.2H319c.33,0,4.19-.06,4.76-.2v1.58c0-.08-3.31-.16-4.74-.16v2.57c0,3.37.18,7.31.21,7.64Z" transform="translate(-8.83 -7.5)"/><path class="cls-1" d="M332.47,264.18c-.58,0-5.93-.18-6.28-.18.06-.88.06-4.43.06-4.82V257c0-.27,0-4.27-.06-4.58.43,0,5.05-.25,5.93-.31l.08,1.4c-.76,0-4,.08-4.25.08v4.06c.33,0,2.59-.08,3.67-.18l.06,1.42-3.72-.06v3.94c.43,0,2.81,0,4.47-.06Z" transform="translate(-8.83 -7.5)"/><path class="cls-1" d="M338.4,252.4c-.08.37-.16,3.63-.16,5.71v4.58c.43,0,2.54,0,4.43-.08v1.56c-.57,0-5.83-.18-6.28-.18.16-.88.16-4.43.16-4.82V257c0-.27,0-4.27-.08-4.58Z" transform="translate(-8.83 -7.5)"/><path class="cls-1" d="M348,252.4c-.08.37-.16,3.63-.16,5.71v4.58c.43,0,2.54,0,4.43-.08v1.56c-.57,0-5.83-.18-6.28-.18.16-.88.16-4.43.16-4.82V257c0-.27,0-4.27-.08-4.58Z" transform="translate(-8.83 -7.5)"/><path class="cls-1" d="M357.43,259c0,1.66.06,4.62.08,5h-1.83c0-.72.06-4.6.06-5v-1.79c0-.29-.06-4.39-.1-4.78h1.89c0,.29-.1,2.81-.1,4.8Z" transform="translate(-8.83 -7.5)"/><path class="cls-1" d="M371.24,263.75a13.57,13.57,0,0,1-3.92.53c-4,0-6.4-2.11-6.4-4.86,0-2,2.07-5.64,8.58-7.33l.35,1.52c-3.84.72-7.12,3.2-7.12,5.83,0,1.74,1.44,3.57,5,3.57a6,6,0,0,0,1.83-.23v-2.69a10.63,10.63,0,0,0-.06-1.15h1.74v2.48C371.2,262,371.24,263.53,371.24,263.75Z" transform="translate(-8.83 -7.5)"/><path class="cls-1" d="M381.48,264.18c-.58,0-5.93-.18-6.28-.18.06-.88.06-4.43.06-4.82V257c0-.27,0-4.27-.06-4.58.43,0,5.05-.25,5.93-.31l.08,1.4c-.76,0-4,.08-4.25.08v4.06c.33,0,2.59-.08,3.67-.18l.06,1.42-3.72-.06v3.94c.43,0,2.81,0,4.47-.06Z" transform="translate(-8.83 -7.5)"/><path class="cls-1" d="M384.95,264c.1-1.25.58-10.55.66-12.27h.1c.51.55,8.64,8.74,9.18,9.26,0-.47,0-8.13.06-8.68l1.74.08c-.08,1-.41,7.78-.49,12h-.08c-.51-.45-9-9-9.3-9.2,0,.31-.1,8.42-.08,9Z" transform="translate(-8.83 -7.5)"/><path class="cls-1" d="M409.3,264.14a15.06,15.06,0,0,1-2.22.14c-6,0-7.53-3.31-7.53-4.91,0-2.81,2.65-6.18,8.72-7.25l.27,1.48c-3.86.47-7.18,2.61-7.18,5.5,0,2,1.66,3.78,5.89,3.78a9,9,0,0,0,1.87-.2Z" transform="translate(-8.83 -7.5)"/><path class="cls-1" d="M418.7,264.18c-.58,0-5.93-.18-6.28-.18.06-.88.06-4.43.06-4.82V257c0-.27,0-4.27-.06-4.58.43,0,5.05-.25,5.93-.31l.08,1.4c-.76,0-4,.08-4.25.08v4.06c.33,0,2.59-.08,3.67-.18l.06,1.42-3.72-.06v3.94c.43,0,2.81,0,4.47-.06Z" transform="translate(-8.83 -7.5)"/><circle class="cls-3" cx="142.86" cy="222.44" r="10"/><circle class="cls-3" cx="118.86" cy="238.77" r="9.35"/><circle class="cls-3" cx="88.87" cy="243.27" r="8.5"/><circle class="cls-3" cx="58.17" cy="240" r="7.5"/><circle class="cls-3" cx="31.33" cy="227" r="6.5"/><circle class="cls-3" cx="13.67" cy="204.17" r="5.5"/><circle class="cls-3" cx="4.5" cy="178.17" r="4.5"/><circle class="cls-4" cx="109.36" cy="216.5" r="10"/><circle class="cls-4" cx="72.86" cy="217.27" r="9.35"/><circle class="cls-4" cx="46.71" cy="200.41" r="8.5"/><circle class="cls-4" cx="29.17" cy="176.67" r="7.5"/><circle class="cls-4" cx="22.67" cy="148.83" r="6.5"/><circle class="cls-4" cx="26.5" cy="118.67" r="5.5"/><circle class="cls-4" cx="36.17" cy="90" r="4.5"/><circle class="cls-5" cx="89.21" cy="195" r="10"/><circle class="cls-5" cx="66.55" cy="177.06" r="9.35"/><circle class="cls-5" cx="52.87" cy="151.57" r="8.5"/><circle class="cls-5" cx="51.83" cy="120.67" r="7.5"/><circle class="cls-5" cx="58.67" cy="88.17" r="6.5"/><circle class="cls-5" cx="71" cy="60.67" r="5.5"/><circle class="cls-5" cx="89.17" cy="34.67" r="4.5"/><circle class="cls-6" cx="91.04" cy="161.8" r="10"/><circle class="cls-6" cx="80.05" cy="132.89" r="9.35"/><circle class="cls-6" cx="81.09" cy="103.57" r="8.5"/><circle class="cls-6" cx="90.67" cy="73.67" r="7.5"/><circle class="cls-6" cx="124.33" cy="24.17" r="5.5"/><circle class="cls-6" cx="106" cy="46.83" r="6.5"/><circle class="cls-6" cx="147.17" cy="4.5" r="4.5"/></svg>