<svg id="Layer_1" data-name="Layer 1" xmlns="http://www.w3.org/2000/svg" viewBox="0 0 430.06 251.77"><defs><style>.cls-1{fill:#fff;}.cls-2{fill:#4fb965;}.cls-3{fill:#3e68b2;}.cls-4{fill:#fdcd0b;}.cls-5{fill:#cf2037;}</style></defs><title>DTAI_Logo_Short_White</title><path class="cls-1" d="M150,136.9c0-12.25-.26-14.71-6.19-15.35l-2.45-.26c-1.29-.65-1.29-4.39.26-4.52,10.84-.65,20.9-1.16,34.57-1.16,10.58,0,21.16,1,30.06,4.26,16.9,6.06,26.19,21.28,26.19,37.41,0,17.29-8.26,31.22-23.09,38.57-8.77,4.39-19.35,6.06-32.64,6.06-6.06,0-12.51-.77-17.16-.77-6.19,0-12.77.13-20.12.39-1-.77-1-3.87,0-4.52l4-.65c5.8-.9,6.58-1.94,6.58-13.8Zm18.45,40.89c0,7.09.26,11.74,2.58,14.45S177,196,181.69,196c22.32,0,29.93-19.87,29.93-37.41,0-23.22-12.25-37-35.6-37-3.48,0-5.93.65-6.71,1.68s-.9,3.48-.9,7.48Z" transform="translate(-5.5 -6)"/><path class="cls-1" d="M270.44,125.67c0-3.1,0-3.74-3.1-3.74h-8c-9.42,0-12.13,5.16-16,14.58-1.55.77-4,.52-4.77-1.16,2.71-8.9,3.35-16.9,4.26-21.93a3.08,3.08,0,0,1,1.81-.65,3,3,0,0,1,1.81.52c.65,2.19,1,2.71,10.84,2.71h48c8.51,0,10.45-.13,11.61-2.84a3.23,3.23,0,0,1,1.68-.39,2.75,2.75,0,0,1,1.94.9c-1.29,4.39-2.19,14.83-1.94,22.19-.64,1.16-4.13,1.42-4.77.39-2.19-8.26-4-14.32-13.67-14.32h-7.74c-3.1,0-3.48.39-3.48,3.74v56.89c0,12,.77,13,6.58,13.8l5.16.65c.9.77.9,3.74,0,4.52-8.38-.26-14.83-.39-20.64-.39-6.19,0-12.9.13-21.93.39-1-.77-1-3.74,0-4.52l5.8-.65c5.81-.65,6.58-1.81,6.58-13.8Z" transform="translate(-5.5 -6)"/><path class="cls-1" d="M337.27,172c-3.1,0-3.48.13-4.26,2.58l-5,15a15.06,15.06,0,0,0-.9,4.64c0,.77,1.68,1.55,5.29,2.19l3.87.65c.77.9,1,3.87-.26,4.52-4.51-.26-9.16-.26-14.58-.39-4.39,0-7.35.39-13.29.39-1.42-.77-1.29-3.48-.39-4.52l3.48-.39c3.1-.39,5.68-1.42,7.87-6.45s4.64-11.35,8.13-20.64l11.74-31.48c3-8.13,5.16-12.64,4.77-16.38,6.19-1.42,11-7.74,11.22-7.74,1.68,0,2.45.65,3,2.58,1,3.74,2.58,8.51,5.8,17.67l17.54,50.57c2.71,7.74,3.87,10.71,8.64,11.48l4.9.77c.77.65,1,3.74-.13,4.52-6.19-.26-13.16-.39-19.87-.39-6.45,0-11.48.13-17.41.39a2.93,2.93,0,0,1-.26-4.52l4.13-.65c3-.52,3.48-1.42,3.48-2.19s-.9-4-2.45-8.77l-3.48-11.09c-.65-2.06-1.68-2.32-6.19-2.32ZM352,165.15c3,0,3.61-.39,2.58-3.74L351.2,151c-1.81-5.55-4.13-12.51-5.29-15.22-1,3-3.61,9.93-5.55,15.87l-3.22,9.67c-1.16,3.48-.52,3.87,2.71,3.87Z" transform="translate(-5.5 -6)"/><path class="cls-1" d="M424.47,182.3c0,12.13.77,13,6.71,14.06l3.61.65c1,.77.9,3.74-.13,4.52-7-.26-13.29-.39-19.35-.39s-12.64.13-19.61.39c-1-.77-1-3.74,0-4.52l3.61-.65c5.93-1,6.71-1.94,6.71-14.06V134.83c0-12.13-.77-13-6.71-14.06l-3.61-.65c-1-.77-1-3.74,0-4.51,7,.26,13.42.39,19.61.39s12.51-.13,19.48-.39c1,.77,1,3.74,0,4.51l-3.61.65c-5.93,1-6.71,1.94-6.71,14.06Z" transform="translate(-5.5 -6)"/><circle class="cls-2" cx="142.86" cy="222.44" r="10"/><circle class="cls-2" cx="118.86" cy="238.77" r="9.35"/><circle class="cls-2" cx="88.87" cy="243.27" r="8.5"/><circle class="cls-2" cx="58.17" cy="240" r="7.5"/><circle class="cls-2" cx="31.33" cy="227" r="6.5"/><circle class="cls-2" cx="13.67" cy="204.17" r="5.5"/><circle class="cls-2" cx="4.5" cy="178.17" r="4.5"/><circle class="cls-3" cx="109.36" cy="216.5" r="10"/><circle class="cls-3" cx="72.86" cy="217.27" r="9.35"/><circle class="cls-3" cx="46.71" cy="200.41" r="8.5"/><circle class="cls-3" cx="29.17" cy="176.67" r="7.5"/><circle class="cls-3" cx="22.67" cy="148.83" r="6.5"/><circle class="cls-3" cx="26.5" cy="118.67" r="5.5"/><circle class="cls-3" cx="36.17" cy="90" r="4.5"/><circle class="cls-4" cx="89.21" cy="195" r="10"/><circle class="cls-4" cx="66.55" cy="177.06" r="9.35"/><circle class="cls-4" cx="52.87" cy="151.57" r="8.5"/><circle class="cls-4" cx="51.83" cy="120.67" r="7.5"/><circle class="cls-4" cx="58.67" cy="88.17" r="6.5"/><circle class="cls-4" cx="71" cy="60.67" r="5.5"/><circle class="cls-4" cx="89.17" cy="34.67" r="4.5"/><circle class="cls-5" cx="91.04" cy="161.8" r="10"/><circle class="cls-5" cx="80.05" cy="132.89" r="9.35"/><circle class="cls-5" cx="81.09" cy="103.57" r="8.5"/><circle class="cls-5" cx="90.67" cy="73.67" r="7.5"/><circle class="cls-5" cx="124.33" cy="24.17" r="5.5"/><circle class="cls-5" cx="106" cy="46.83" r="6.5"/><circle class="cls-5" cx="147.17" cy="4.5" r="4.5"/></svg>